# xmcd CD database file
#
# Track frame offsets:
#	150
#	15319
#	28008
#	50782
#	63606
#
# Disc length: 1147 seconds
#
# Revision: 0
# Processed by: cddbd v1.5PL3 Copyright (c) Steve Scherf et al.
# Submitted via: CDex 1.51
#
DISCID=3d047905
DTITLE=City Blues Band - City Blues Band - 
DYEAR=1997
DGENRE=Blues
TTITLE0=Brown Sugar
TTITLE1=I loved another woman
TTITLE2=Help me
TTITLE3=Stop Nessin' around
TTITLE4=Need your love 
EXTD=YEAR: 1997
EXTT0=
EXTT1=
EXTT2=
EXTT3=
EXTT4=
PLAYORDER=
